<?xml version="1.0" standalone="no"?>
<!DOCTYPE svg PUBLIC "-//W3C//DTD SVG 20010904//EN"
 "http://www.w3.org/TR/2001/REC-SVG-20010904/DTD/svg10.dtd">
<svg version="1.0" xmlns="http://www.w3.org/2000/svg"
 width="1024.000000pt" height="1024.000000pt" viewBox="0 0 1024.000000 1024.000000"
 preserveAspectRatio="xMidYMid meet">

<g transform="translate(0.000000,1024.000000) scale(0.100000,-0.100000)"
fill="#000000" stroke="none">
<path d="M5900 8454 c-161 -27 -240 -49 -333 -96 -32 -16 -55 -33 -52 -38 3
-5 0 -12 -6 -16 -8 -4 -9 -3 -5 4 31 51 -133 -68 -216 -156 -73 -78 -131 -159
-173 -242 -15 -30 -29 -56 -30 -58 -2 -2 -43 29 -92 69 -94 77 -205 152 -316
212 -70 38 -93 46 -81 25 4 -7 3 -8 -5 -4 -6 4 -9 11 -6 16 7 11 -147 75 -255
106 -112 33 -302 71 -418 84 -141 16 -480 13 -639 -5 -156 -18 -350 -57 -405
-81 -75 -33 -69 88 -66 -1511 l3 -1433 28 -27 c25 -25 34 -28 95 -28 37 1 123
13 192 28 410 90 854 72 1175 -50 192 -72 337 -166 502 -325 130 -125 171
-148 269 -148 89 0 147 33 279 160 184 176 329 265 541 333 327 106 734 115
1134 27 152 -34 186 -36 235 -16 71 30 70 21 71 494 l2 423 83 57 c214 145
347 337 411 589 22 83 23 108 23 443 0 390 -4 420 -64 575 -45 117 -96 198
-185 292 -91 96 -217 185 -330 232 -153 64 -154 64 -776 67 -311 1 -576 0
-590 -2z m1067 -20 c-3 -3 -12 -4 -19 -1 -8 3 -5 6 6 6 11 1 17 -2 13 -5z
m-3500 -80 c-3 -3 -12 -4 -19 -1 -8 3 -5 6 6 6 11 1 17 -2 13 -5z m311 -1
c-10 -2 -28 -2 -40 0 -13 2 -5 4 17 4 22 1 32 -1 23 -4z m-435 -10 c-7 -2 -21
-2 -30 0 -10 3 -4 5 12 5 17 0 24 -2 18 -5z m565 0 c-10 -2 -26 -2 -35 0 -10
3 -2 5 17 5 19 0 27 -2 18 -5z m-661 -9 c-3 -3 -12 -4 -19 -1 -8 3 -5 6 6 6
11 1 17 -2 13 -5z m810 -10 c-3 -3 -12 -4 -19 -1 -8 3 -5 6 6 6 11 1 17 -2 13
-5z m-1030 -30 c-3 -3 -12 -4 -19 -1 -8 3 -5 6 6 6 11 1 17 -2 13 -5z m1170 0
c-3 -3 -12 -4 -19 -1 -8 3 -5 6 6 6 11 1 17 -2 13 -5z m3414 -171 c13 -16 12
-17 -3 -4 -10 7 -18 15 -18 17 0 8 8 3 21 -13z m-4143 -20 c-16 -2 -40 -2 -55
0 -16 2 -3 4 27 4 30 0 43 -2 28 -4z m285 0 c-7 -2 -21 -2 -30 0 -10 3 -4 5
12 5 17 0 24 -2 18 -5z m50 0 c-7 -2 -19 -2 -25 0 -7 3 -2 5 12 5 14 0 19 -2
13 -5z m-476 -9 c-3 -3 -12 -4 -19 -1 -8 3 -5 6 6 6 11 1 17 -2 13 -5z m550 0
c-3 -3 -12 -4 -19 -1 -8 3 -5 6 6 6 11 1 17 -2 13 -5z m-634 -11 c-7 -2 -19
-2 -25 0 -7 3 -2 5 12 5 14 0 19 -2 13 -5z m766 -23 c352 -62 639 -207 894
-448 l57 -55 0 -933 c0 -540 4 -943 9 -957 12 -31 59 -51 92 -38 13 5 44 30
69 56 62 64 180 162 270 222 87 59 275 155 340 174 34 10 193 13 658 14 l612
2 0 -189 c0 -103 -2 -188 -5 -188 -3 0 -47 7 -98 15 -350 56 -783 30 -1085
-66 -107 -34 -326 -135 -413 -192 -76 -48 -193 -143 -276 -221 l-68 -64 -35
35 c-19 20 -78 70 -130 112 -285 228 -585 357 -950 407 -221 31 -686 16 -827
-25 l-33 -10 0 1169 0 1168 40 7 c158 27 273 34 505 31 205 -3 273 -7 374 -26z
m-46 23 c-7 -2 -19 -2 -25 0 -7 3 -2 5 12 5 14 0 19 -2 13 -5z m2209 -230
c445 -256 824 -477 849 -495 38 -28 62 -81 54 -118 -15 -66 24 -41 -774 -510
-326 -191 -337 -196 -401 -163 -72 37 -70 18 -70 681 0 650 -1 634 61 686 50
42 82 33 281 -81z m-1691 79 c-7 -2 -18 1 -23 6 -8 8 -4 9 13 5 13 -4 18 -8
10 -11z m3289 -67 c0 -5 -5 -3 -10 5 -5 8 -10 20 -10 25 0 6 5 3 10 -5 5 -8
10 -19 10 -25z m37 -137 c-3 -7 -5 -2 -5 12 0 14 2 19 5 13 2 -7 2 -19 0 -25z
m20 -125 c-3 -10 -5 -2 -5 17 0 19 2 27 5 18 2 -10 2 -26 0 -35z m-2867 -15
c0 -6 -6 -5 -15 2 -8 7 -15 14 -15 16 0 2 7 1 15 -2 8 -4 15 -11 15 -16z m17
-300 c-3 -8 -6 -5 -6 6 -1 11 2 17 5 13 3 -3 4 -12 1 -19z m0 -160 c-2 -13 -4
-3 -4 22 0 25 2 35 4 23 2 -13 2 -33 0 -45z m0 -75 c-3 -10 -5 -2 -5 17 0 19
2 27 5 18 2 -10 2 -26 0 -35z m0 -100 c-3 -10 -5 -4 -5 12 0 17 2 24 5 18 2
-7 2 -21 0 -30z m0 -65 c-3 -8 -6 -5 -6 6 -1 11 2 17 5 13 3 -3 4 -12 1 -19z
m2786 -183 c-3 -9 -8 -14 -10 -11 -3 3 -2 9 2 15 9 16 15 13 8 -4z m-2786 -77
c-3 -7 -5 -2 -5 12 0 14 2 19 5 13 2 -7 2 -19 0 -25z m1946 -515 c-7 -2 -19
-2 -25 0 -7 3 -2 5 12 5 14 0 19 -2 13 -5z m-3355 -370 c-21 -2 -57 -2 -80 0
-24 2 -7 4 37 4 44 0 63 -2 43 -4z m79 1 c-3 -3 -12 -4 -19 -1 -8 3 -5 6 6 6
11 1 17 -2 13 -5z m136 -1 c-24 -2 -62 -2 -85 0 -24 2 -5 4 42 4 47 0 66 -2
43 -4z m2665 0 c-21 -2 -55 -2 -75 0 -21 2 -4 4 37 4 41 0 58 -2 38 -4z m190
0 c-26 -2 -71 -2 -100 0 -29 2 -8 3 47 3 55 0 79 -1 53 -3z m-3275 -10 c-7 -2
-19 -2 -25 0 -7 3 -2 5 12 5 14 0 19 -2 13 -5z m525 0 c-10 -2 -26 -2 -35 0
-10 3 -2 5 17 5 19 0 27 -2 18 -5z m2905 0 c-7 -2 -19 -2 -25 0 -7 3 -2 5 12
5 14 0 19 -2 13 -5z m54 -9 c-3 -3 -12 -4 -19 -1 -8 3 -5 6 6 6 11 1 17 -2 13
-5z m-3310 -350 c-3 -3 -12 -4 -19 -1 -8 3 -5 6 6 6 11 1 17 -2 13 -5z m260
-1 c-20 -2 -52 -2 -70 0 -17 2 0 4 38 4 39 0 53 -2 32 -4z m2591 0 c-16 -2
-40 -2 -55 0 -16 2 -3 4 27 4 30 0 43 -2 28 -4z m225 0 c-13 -2 -33 -2 -45 0
-13 2 -3 4 22 4 25 0 35 -2 23 -4z m-3205 -10 c-10 -2 -28 -2 -40 0 -13 2 -5
4 17 4 22 1 32 -1 23 -4z m500 0 c-10 -2 -28 -2 -40 0 -13 2 -5 4 17 4 22 1
32 -1 23 -4z m2345 0 c-7 -2 -21 -2 -30 0 -10 3 -4 5 12 5 17 0 24 -2 18 -5z
m495 0 c-10 -2 -26 -2 -35 0 -10 3 -2 5 17 5 19 0 27 -2 18 -5z m-3421 -9 c-3
-3 -12 -4 -19 -1 -8 3 -5 6 6 6 11 1 17 -2 13 -5z m3500 0 c-3 -3 -12 -4 -19
-1 -8 3 -5 6 6 6 11 1 17 -2 13 -5z m-2342 -164 c3 -6 -1 -7 -9 -4 -18 7 -21
14 -7 14 6 0 13 -4 16 -10z m588 -397 c-7 -2 -21 -2 -30 0 -10 3 -4 5 12 5 17
0 24 -2 18 -5z"/>
<path d="M1160 4264 c-137 -36 -254 -123 -305 -228 -50 -103 -50 -280 1 -384
47 -97 149 -158 385 -233 172 -54 227 -79 264 -118 27 -29 30 -39 30 -94 0
-76 -24 -115 -91 -148 -132 -63 -344 -19 -480 101 -20 17 -40 27 -50 23 -15
-6 -121 -139 -143 -181 -11 -22 -9 -27 27 -60 57 -53 183 -117 282 -144 108
-29 299 -32 400 -5 197 52 322 180 351 358 12 72 6 128 -23 222 -41 134 -136
200 -414 284 -89 27 -181 61 -206 76 -50 29 -78 75 -78 127 0 182 292 224 484
71 22 -18 47 -30 55 -29 17 4 112 117 138 166 l18 34 -44 39 c-55 49 -165 103
-251 123 -83 20 -276 20 -350 0z"/>
<path d="M7568 4270 c-131 -24 -247 -82 -343 -171 -81 -77 -131 -152 -171
-259 -44 -117 -58 -214 -52 -367 4 -110 10 -142 37 -223 44 -130 82 -192 170
-281 60 -60 94 -85 161 -117 227 -108 455 -107 680 1 91 44 213 167 264 265
21 40 35 80 32 88 -3 8 -2 12 4 9 12 -7 36 75 51 177 15 105 6 270 -21 366
-38 137 -132 290 -222 364 -131 107 -244 148 -423 153 -66 2 -141 0 -167 -5z
m59 -16 c-3 -3 -12 -4 -19 -1 -8 3 -5 6 6 6 11 1 17 -2 13 -5z m188 -258 c72
-19 112 -42 165 -95 86 -86 133 -221 133 -381 1 -269 -122 -441 -342 -482
-115 -22 -256 20 -345 103 -174 160 -179 562 -9 750 92 101 253 144 398 105z
m-744 -159 c-10 -9 -11 -8 -5 6 3 10 9 15 12 12 3 -3 0 -11 -7 -18z m1056
-229 c-3 -8 -6 -5 -6 6 -1 11 2 17 5 13 3 -3 4 -12 1 -19z m-1110 -50 c-2 -13
-4 -3 -4 22 0 25 2 35 4 23 2 -13 2 -33 0 -45z m260 20 c-3 -8 -6 -5 -6 6 -1
11 2 17 5 13 3 -3 4 -12 1 -19z m-260 -115 c-2 -16 -4 -5 -4 22 0 28 2 40 4
28 2 -13 2 -35 0 -50z m1120 45 c-3 -8 -6 -5 -6 6 -1 11 2 17 5 13 3 -3 4 -12
1 -19z m-10 -100 c-3 -8 -6 -5 -6 6 -1 11 2 17 5 13 3 -3 4 -12 1 -19z m-1090
-90 c-3 -8 -6 -5 -6 6 -1 11 2 17 5 13 3 -3 4 -12 1 -19z m33 -93 c0 -5 -5 -3
-10 5 -5 8 -10 20 -10 25 0 6 5 3 10 -5 5 -8 10 -19 10 -25z m1253 -60 c-3 -9
-8 -14 -10 -11 -3 3 -2 9 2 15 9 16 15 13 8 -4z m-696 -141 c-3 -3 -12 -4 -19
-1 -8 3 -5 6 6 6 11 1 17 -2 13 -5z m111 -11 c-16 -2 -40 -2 -55 0 -16 2 -3 4
27 4 30 0 43 -2 28 -4z m139 -209 c-3 -3 -12 -4 -19 -1 -8 3 -5 6 6 6 11 1 17
-2 13 -5z"/>
<path d="M3028 4259 c-17 -9 -18 -55 -18 -734 l0 -725 134 0 c113 0 135 2 140
16 3 9 6 149 6 312 0 185 4 312 11 337 15 54 82 118 142 135 104 29 192 -5
231 -89 20 -43 21 -68 27 -376 3 -181 7 -331 7 -332 1 -2 63 -3 137 -3 l135 0
0 358 c0 385 -4 421 -54 521 -32 62 -103 124 -175 153 -45 17 -77 22 -161 22
-95 1 -111 -2 -165 -27 -33 -15 -77 -44 -97 -65 l-38 -36 0 266 c0 233 -2 267
-16 272 -26 10 -228 6 -246 -5z"/>
<path d="M6546 4254 c-14 -14 -16 -93 -16 -719 0 -387 3 -710 6 -719 5 -14 28
-16 145 -16 l139 0 0 729 c0 655 -2 729 -16 735 -9 3 -67 6 -129 6 -90 0 -117
-3 -129 -16z"/>
<path d="M2363 3845 c-152 -33 -307 -151 -367 -278 -74 -158 -72 -358 5 -515
129 -264 471 -359 759 -212 57 29 120 80 120 96 0 19 -120 174 -135 174 -7 0
-38 -16 -70 -35 -159 -95 -341 -57 -418 90 -30 58 -36 205 -11 277 60 169 275
221 429 104 51 -39 68 -34 128 42 63 78 79 105 72 124 -8 21 -96 77 -164 104
-110 45 -230 55 -348 29z"/>
<path d="M4545 3850 c-22 -4 -65 -18 -95 -29 -267 -101 -399 -394 -309 -687
98 -319 493 -460 808 -288 109 59 209 195 237 321 24 111 16 266 -20 353 -59
144 -183 263 -326 311 -72 24 -226 34 -295 19z m235 -267 c64 -34 104 -88 125
-168 27 -107 15 -210 -35 -289 -38 -60 -94 -95 -172 -108 -94 -16 -161 6 -221
72 -56 63 -79 128 -79 225 0 91 22 159 69 215 50 58 101 80 189 80 59 0 81 -5
124 -27z"/>
<path d="M5721 3844 c-198 -43 -354 -196 -402 -394 -18 -76 -16 -212 5 -290
63 -235 271 -390 526 -390 218 0 402 111 489 292 63 132 77 254 46 387 -70
293 -354 463 -664 395z m230 -249 c122 -43 190 -196 159 -359 -16 -86 -57
-148 -123 -186 -141 -81 -304 -31 -368 113 -33 73 -35 230 -3 297 27 56 77
108 129 131 50 23 147 25 206 4z"/>
<path d="M9022 3844 c-68 -18 -104 -37 -153 -81 l-39 -35 0 35 c0 58 -17 67
-131 67 -55 0 -109 -5 -120 -10 -18 -10 -19 -27 -19 -515 l0 -505 134 0 c113
0 135 2 140 16 3 9 6 156 6 327 0 282 2 316 19 352 34 75 102 115 192 115 67
0 115 -24 147 -73 l27 -40 3 -326 c1 -179 4 -336 7 -349 5 -22 7 -23 138 -20
l132 3 5 340 c3 187 1 368 -3 403 -20 155 -115 261 -269 297 -78 18 -147 18
-216 -1z m-142 -98 c0 -3 -4 -8 -10 -11 -5 -3 -10 -1 -10 4 0 6 5 11 10 11 6
0 10 -2 10 -4z m-53 -703 c-1 -76 -3 -14 -3 137 0 151 2 213 3 138 2 -76 2
-200 0 -275z m670 355 c-2 -13 -4 -5 -4 17 -1 22 1 32 4 23 2 -10 2 -28 0 -40z
m0 -60 c-3 -7 -5 -2 -5 12 0 14 2 19 5 13 2 -7 2 -19 0 -25z m0 -100 c-3 -7
-5 -2 -5 12 0 14 2 19 5 13 2 -7 2 -19 0 -25z m0 -70 c-3 -7 -5 -2 -5 12 0 14
2 19 5 13 2 -7 2 -19 0 -25z m0 -70 c-3 -8 -6 -5 -6 6 -1 11 2 17 5 13 3 -3 4
-12 1 -19z m0 -130 c-3 -7 -5 -2 -5 12 0 14 2 19 5 13 2 -7 2 -19 0 -25z m0
-80 c-3 -8 -6 -5 -6 6 -1 11 2 17 5 13 3 -3 4 -12 1 -19z m-684 -75 c-7 -2
-19 -2 -25 0 -7 3 -2 5 12 5 14 0 19 -2 13 -5z m504 1 c-3 -3 -12 -4 -19 -1
-8 3 -5 6 6 6 11 1 17 -2 13 -5z m136 -1 c-24 -2 -62 -2 -85 0 -24 2 -5 4 42
4 47 0 66 -2 43 -4z"/>
</g>
</svg>
